<?xml version="1.0" encoding="iso-8859-1"?>
<!-- Generator: Adobe Illustrator 17.0.0, SVG Export Plug-In . SVG Version: 6.00 Build 0)  -->
<!DOCTYPE svg PUBLIC "-//W3C//DTD SVG 1.1//EN" "http://www.w3.org/Graphics/SVG/1.1/DTD/svg11.dtd">
<svg version="1.1" id="Capa_1" xmlns="http://www.w3.org/2000/svg" xmlns:xlink="http://www.w3.org/1999/xlink" x="0px" y="0px"
	 width="64px" height="64px" viewBox="0 0 64 64" style="enable-background:new 0 0 64 64;" xml:space="preserve">
<path d="M26.562,8.83c-2.962,0-5.373,2.412-5.373,5.376c0,1.046,0.855,1.898,1.904,1.898c1.046,0,1.897-0.852,1.897-1.898
	c0-0.867,0.705-1.573,1.571-1.573h10.806c0.863,0,1.566,0.706,1.566,1.573c0,1.046,0.854,1.898,1.905,1.898
	c1.049,0,1.902-0.852,1.902-1.898c0-2.964-2.41-5.376-5.373-5.376H26.562z"/>
<path d="M11.691,53.67h40.547c2.847,0,5.157-2.308,5.157-5.161V23.175c0-2.85-2.311-5.16-5.157-5.16H11.691
	c-2.849,0-5.157,2.311-5.157,5.16v25.334C6.534,51.362,8.843,53.67,11.691,53.67z M49.395,45.175H14.677
	c-0.695,0-1.257-0.56-1.257-1.255c0-0.693,0.562-1.259,1.257-1.259h34.717c0.692,0,1.255,0.566,1.255,1.259
	C50.65,44.615,50.086,45.175,49.395,45.175z M49.359,37.1H14.642c-0.695,0-1.257-0.56-1.257-1.255c0-0.693,0.562-1.259,1.257-1.259
	h34.717c0.692,0,1.255,0.566,1.255,1.259C50.615,36.54,50.051,37.1,49.359,37.1z M14.607,26.51h34.717
	c0.692,0,1.255,0.565,1.255,1.259c0,0.695-0.563,1.255-1.255,1.255H14.607c-0.695,0-1.257-0.56-1.257-1.255
	C13.35,27.076,13.912,26.51,14.607,26.51z"/>
</svg>
